<mxfile host="Electron" modified="2024-10-01T03:35:11.127Z" agent="Mozilla/5.0 (Windows NT 10.0; Win64; x64) AppleWebKit/537.36 (KHTML, like Gecko) draw.io/21.1.2 Chrome/106.0.5249.199 Electron/21.4.3 Safari/537.36" etag="HxTZ8NmTJutXKrRLNiTf" version="21.1.2" type="device">
  <diagram name="Page-1" id="mTbsmGLvhKZA6nQ2A7sE">
    <mxGraphModel dx="1292" dy="974" grid="1" gridSize="10" guides="1" tooltips="1" connect="1" arrows="1" fold="1" page="1" pageScale="1" pageWidth="850" pageHeight="1100" math="0" shadow="0">
      <root>
        <mxCell id="0" />
        <mxCell id="1" parent="0" />
        <mxCell id="syyC7lsID2Xfc4rt1WIB-1" value="" style="whiteSpace=wrap;html=1;aspect=fixed;fillColor=#666666;" vertex="1" parent="1">
          <mxGeometry x="320" y="280" width="200" height="200" as="geometry" />
        </mxCell>
        <mxCell id="syyC7lsID2Xfc4rt1WIB-3" value="" style="endArrow=none;html=1;rounded=0;exitX=1.002;exitY=0.664;exitDx=0;exitDy=0;exitPerimeter=0;entryX=-0.004;entryY=0.661;entryDx=0;entryDy=0;entryPerimeter=0;strokeColor=#FFFFFF;strokeWidth=3;" edge="1" parent="1" source="syyC7lsID2Xfc4rt1WIB-1" target="syyC7lsID2Xfc4rt1WIB-1">
          <mxGeometry width="50" height="50" relative="1" as="geometry">
            <mxPoint x="420" y="440" as="sourcePoint" />
            <mxPoint x="470" y="390" as="targetPoint" />
          </mxGeometry>
        </mxCell>
        <mxCell id="syyC7lsID2Xfc4rt1WIB-4" value="" style="endArrow=none;html=1;rounded=0;exitX=1.002;exitY=0.332;exitDx=0;exitDy=0;exitPerimeter=0;entryX=-0.001;entryY=0.332;entryDx=0;entryDy=0;entryPerimeter=0;strokeColor=#FFFFFF;strokeWidth=3;" edge="1" parent="1" source="syyC7lsID2Xfc4rt1WIB-1" target="syyC7lsID2Xfc4rt1WIB-1">
          <mxGeometry width="50" height="50" relative="1" as="geometry">
            <mxPoint x="520" y="341" as="sourcePoint" />
            <mxPoint x="319" y="340" as="targetPoint" />
          </mxGeometry>
        </mxCell>
        <mxCell id="syyC7lsID2Xfc4rt1WIB-5" value="" style="endArrow=none;html=1;rounded=0;exitX=0.334;exitY=0.998;exitDx=0;exitDy=0;exitPerimeter=0;entryX=0.328;entryY=0.001;entryDx=0;entryDy=0;entryPerimeter=0;strokeColor=#FFFFFF;strokeWidth=3;" edge="1" parent="1" source="syyC7lsID2Xfc4rt1WIB-1" target="syyC7lsID2Xfc4rt1WIB-1">
          <mxGeometry width="50" height="50" relative="1" as="geometry">
            <mxPoint x="329" y="350" as="sourcePoint" />
            <mxPoint x="530" y="351" as="targetPoint" />
          </mxGeometry>
        </mxCell>
        <mxCell id="syyC7lsID2Xfc4rt1WIB-6" value="" style="endArrow=none;html=1;rounded=0;exitX=0.656;exitY=0.998;exitDx=0;exitDy=0;exitPerimeter=0;entryX=0.662;entryY=0.004;entryDx=0;entryDy=0;entryPerimeter=0;strokeColor=#FFFFFF;strokeWidth=3;" edge="1" parent="1" source="syyC7lsID2Xfc4rt1WIB-1" target="syyC7lsID2Xfc4rt1WIB-1">
          <mxGeometry width="50" height="50" relative="1" as="geometry">
            <mxPoint x="397" y="490" as="sourcePoint" />
            <mxPoint x="396" y="290" as="targetPoint" />
          </mxGeometry>
        </mxCell>
        <mxCell id="syyC7lsID2Xfc4rt1WIB-8" value="&lt;font style=&quot;font-size: 37px;&quot; color=&quot;#ffffff&quot;&gt;X&lt;/font&gt;" style="text;html=1;align=center;verticalAlign=middle;whiteSpace=wrap;rounded=0;" vertex="1" parent="1">
          <mxGeometry x="330" y="300" width="40" height="30" as="geometry" />
        </mxCell>
        <mxCell id="syyC7lsID2Xfc4rt1WIB-9" value="&lt;font style=&quot;font-size: 36px;&quot; color=&quot;#ffffff&quot;&gt;X&lt;/font&gt;" style="text;html=1;align=center;verticalAlign=middle;whiteSpace=wrap;rounded=0;" vertex="1" parent="1">
          <mxGeometry x="390" y="365" width="60" height="30" as="geometry" />
        </mxCell>
        <mxCell id="syyC7lsID2Xfc4rt1WIB-10" value="&lt;font style=&quot;font-size: 36px;&quot; color=&quot;#ffffff&quot;&gt;X&lt;/font&gt;" style="text;html=1;align=center;verticalAlign=middle;whiteSpace=wrap;rounded=0;" vertex="1" parent="1">
          <mxGeometry x="460" y="430" width="50" height="30" as="geometry" />
        </mxCell>
        <mxCell id="syyC7lsID2Xfc4rt1WIB-11" value="&lt;font style=&quot;font-size: 36px;&quot; color=&quot;#ffffff&quot;&gt;O&lt;/font&gt;" style="text;html=1;align=center;verticalAlign=middle;whiteSpace=wrap;rounded=0;" vertex="1" parent="1">
          <mxGeometry x="455" y="300" width="60" height="30" as="geometry" />
        </mxCell>
        <mxCell id="syyC7lsID2Xfc4rt1WIB-12" value="&lt;font style=&quot;font-size: 36px;&quot; color=&quot;#ffffff&quot;&gt;O&lt;/font&gt;" style="text;html=1;align=center;verticalAlign=middle;whiteSpace=wrap;rounded=0;" vertex="1" parent="1">
          <mxGeometry x="455" y="365" width="60" height="30" as="geometry" />
        </mxCell>
        <mxCell id="syyC7lsID2Xfc4rt1WIB-13" value="" style="endArrow=none;html=1;rounded=0;exitX=0.195;exitY=-0.02;exitDx=0;exitDy=0;entryX=0.86;entryY=1.007;entryDx=0;entryDy=0;strokeColor=#fe7301;strokeWidth=3;entryPerimeter=0;exitPerimeter=0;" edge="1" parent="1" source="syyC7lsID2Xfc4rt1WIB-8" target="syyC7lsID2Xfc4rt1WIB-10">
          <mxGeometry width="50" height="50" relative="1" as="geometry">
            <mxPoint x="400" y="400" as="sourcePoint" />
            <mxPoint x="450" y="350" as="targetPoint" />
          </mxGeometry>
        </mxCell>
      </root>
    </mxGraphModel>
  </diagram>
</mxfile>
